<svg width="1512" height="167" viewBox="0 0 1512 167" fill="none" xmlns="http://www.w3.org/2000/svg">
<g clip-path="url(#clip0_37_120)">
<mask id="mask0_37_120" style="mask-type:luminance" maskUnits="userSpaceOnUse" x="87" y="83" width="93" height="84">
<path d="M87.1499 83.9196H179.55V166.165H87.1499V83.9196Z" fill="white"/>
</mask>
<g mask="url(#mask0_37_120)">
<path d="M133.711 160.518C132.226 160.518 131.073 160.072 130.249 159.176C129.445 158.28 129.039 157.035 129.039 155.435V137.764H112.752C111.337 137.764 110.221 137.348 109.417 136.522C108.609 135.683 108.203 134.503 108.203 132.995C108.203 131.483 108.609 130.316 109.417 129.49C110.221 128.668 111.337 128.253 112.752 128.253H129.039V111.106C129.039 109.528 129.445 108.309 130.249 107.448C131.073 106.587 132.263 106.154 133.809 106.154C135.294 106.154 136.422 106.587 137.197 107.448C137.972 108.309 138.358 109.528 138.358 111.106V128.253H154.67C156.154 128.253 157.282 128.668 158.058 129.49C158.829 130.316 159.218 131.483 159.218 132.995C159.218 134.503 158.829 135.683 158.058 136.522C157.282 137.348 156.154 137.764 154.67 137.764H138.358V155.435C138.358 157.035 137.972 158.28 137.197 159.176C136.422 160.072 135.261 160.518 133.711 160.518Z" stroke="#88FF2B" stroke-width="4.49954"/>
</g>
<path d="M133.703 160.524C132.227 160.524 131.078 160.079 130.258 159.178C129.446 158.269 129.044 157.023 129.044 155.437V137.744H112.752C111.329 137.744 110.213 137.337 109.405 136.52C108.593 135.694 108.191 134.522 108.191 133.006C108.191 131.493 108.593 130.322 109.405 129.492C110.213 128.666 111.329 128.25 112.752 128.25H129.044V111.099C129.044 109.517 129.446 108.293 130.258 107.428C131.078 106.567 132.259 106.134 133.802 106.134C135.286 106.134 136.418 106.567 137.198 107.428C137.973 108.293 138.363 109.517 138.363 111.099V128.25H154.67C156.147 128.25 157.271 128.666 158.05 129.492C158.825 130.322 159.215 131.493 159.215 133.006C159.215 134.522 158.825 135.694 158.05 136.52C157.271 137.337 156.147 137.744 154.67 137.744H138.363V155.437C138.363 157.023 137.973 158.269 137.198 159.178C136.418 160.079 135.254 160.524 133.703 160.524Z" fill="#88FF2B"/>
<path d="M187.31 85.3752C186.153 85.7729 185.144 85.7511 184.283 85.3052C183.418 84.8594 182.802 84.0202 182.425 82.7877C182.052 81.5551 182.093 80.4886 182.548 79.5882C182.999 78.6878 183.807 78.041 184.96 77.6432L219.146 65.8508C220.356 65.4356 221.378 65.453 222.214 65.912C223.051 66.3665 223.654 67.2101 224.031 68.4383C224.405 69.6709 224.376 70.733 223.949 71.6246C223.523 72.5163 222.707 73.1675 221.497 73.5871L187.31 85.3752ZM192.626 102.88C191.469 103.278 190.46 103.256 189.599 102.81C188.737 102.365 188.118 101.525 187.745 100.293C187.368 99.0602 187.413 98.0112 187.876 97.137C188.34 96.2673 189.148 95.6335 190.304 95.2357L224.491 83.4433C225.697 83.0281 226.718 83.0325 227.542 83.4608C228.371 83.8848 228.974 84.7152 229.347 85.9478C229.737 87.2328 229.716 88.3124 229.281 89.1735C228.843 90.0345 228.022 90.6727 226.812 91.0923L192.626 102.88Z" stroke="#2B8CFF" stroke-width="3.85675"/>
<path d="M187.302 85.3858C186.146 85.7836 185.137 85.7617 184.283 85.3159C183.422 84.8613 182.803 84.0178 182.43 82.7808C182.06 81.557 182.097 80.4993 182.544 79.5989C182.996 78.6898 183.799 78.0385 184.956 77.6408L219.147 65.8396C220.348 65.4331 221.37 65.4549 222.215 65.9095C223.055 66.3641 223.663 67.2033 224.036 68.4271C224.405 69.664 224.372 70.7305 223.937 71.6265C223.511 72.5269 222.695 73.1782 221.493 73.5846L187.302 85.3858ZM192.618 102.887C191.457 103.284 190.444 103.262 189.583 102.817C188.73 102.375 188.118 101.536 187.745 100.299C187.376 99.0752 187.417 98.0262 187.876 97.1521C188.336 96.2692 189.144 95.6267 190.305 95.2289L224.495 83.4277C225.697 83.0212 226.714 83.0343 227.547 83.4627C228.375 83.8954 228.978 84.7215 229.351 85.9453C229.745 87.2391 229.716 88.3187 229.269 89.1797C228.83 90.0451 228.01 90.6789 226.808 91.0854L192.618 102.887Z" fill="#2B8CFF"/>
<path d="M32.3407 125.097C31.4835 125.097 30.778 124.839 30.2202 124.328C29.6665 123.816 29.3794 123.148 29.3588 122.326C29.3383 121.504 29.6542 120.643 30.3063 119.738L39.6825 107.413V111.054L30.8846 99.5278C30.1874 98.623 29.8592 97.762 29.8962 96.9359C29.9413 96.1142 30.2448 95.4454 30.7985 94.934C31.3563 94.4139 32.0577 94.1517 32.9026 94.1517C33.7967 94.1517 34.5432 94.3178 35.1338 94.6499C35.7368 94.9821 36.2905 95.4935 36.7868 96.1841L43.7225 105.682H41.1795L48.185 96.1841C48.7223 95.4935 49.276 94.9821 49.8502 94.6499C50.4368 94.3178 51.1504 94.1517 51.9995 94.1517C52.8813 94.1517 53.595 94.4227 54.1323 94.9646C54.6778 95.4979 54.9608 96.1754 54.9772 96.9971C54.9977 97.8188 54.6573 98.6842 53.96 99.5846L45.2319 110.979V107.531L54.5957 119.738C55.293 120.599 55.6211 121.443 55.5842 122.265C55.5473 123.091 55.2479 123.768 54.6819 124.297C54.1241 124.83 53.4063 125.097 52.5204 125.097C51.6713 125.097 50.9577 124.935 50.3752 124.616C49.801 124.284 49.2432 123.768 48.7059 123.065L41.1795 112.964H43.6077L36.151 123.065C35.6547 123.725 35.1133 124.232 34.5268 124.586C33.9526 124.927 33.2225 125.097 32.3407 125.097Z" stroke="#BC4ED8" stroke-width="2.57117"/>
<path d="M32.331 125.11C31.4861 125.11 30.7806 124.852 30.2146 124.34C29.6568 123.816 29.3656 123.147 29.3451 122.33C29.3328 121.504 29.6568 120.643 30.313 119.742L39.681 107.417V111.053L30.8873 99.5142C30.1859 98.6182 29.8578 97.7615 29.9029 96.9442C29.9439 96.1181 30.2474 95.4494 30.8052 94.9336C31.363 94.4222 32.0603 94.1644 32.9052 94.1644C33.7912 94.1644 34.5335 94.3305 35.1365 94.6539C35.7353 94.9817 36.289 95.4931 36.7935 96.1924L43.7333 105.686H41.1904L48.1794 96.1924C48.725 95.4931 49.2828 94.9817 49.8529 94.6539C50.4312 94.3305 51.149 94.1644 52.0021 94.1644C52.888 94.1644 53.5976 94.4354 54.1349 94.9686C54.6804 95.4931 54.9593 96.1706 54.9716 96.9967C54.9921 97.814 54.6599 98.675 53.9708 99.5842L45.2263 110.983V107.539L54.6107 119.742C55.2998 120.608 55.6197 121.451 55.5787 122.277C55.5459 123.095 55.2505 123.772 54.6927 124.305C54.1349 124.839 53.413 125.11 52.5271 125.11C51.674 125.11 50.9562 124.944 50.3779 124.62C49.7955 124.284 49.2376 123.764 48.7044 123.064L41.1904 112.959H43.6185L36.1537 123.064C35.6492 123.729 35.1078 124.236 34.5294 124.585C33.947 124.935 33.2169 125.11 32.331 125.11Z" fill="#BC4ED8"/>
<path d="M91.83 41.6233C90.3822 41.868 89.1804 41.6408 88.2288 40.9327C87.2773 40.2115 86.6825 39.0795 86.4529 37.5322C86.2232 35.9893 86.457 34.7261 87.1583 33.7427C87.8597 32.7549 88.9343 32.143 90.3822 31.8982L133.26 24.6383C134.777 24.3804 135.996 24.6077 136.914 25.3158C137.829 26.0282 138.403 27.1559 138.637 28.6988C138.867 30.2461 138.649 31.5136 137.985 32.5101C137.32 33.4892 136.225 34.1055 134.712 34.3634L91.83 41.6233ZM116.062 61.0559C114.274 61.3575 112.797 61.0647 111.628 60.1774C110.472 59.2639 109.75 57.8521 109.467 55.929C109.18 54.0233 109.459 52.4585 110.295 51.2303C111.144 49.9803 112.465 49.2066 114.249 48.9051C116.054 48.5991 117.53 48.8832 118.679 49.7574C119.844 50.6097 120.574 52.0214 120.869 53.9971C121.152 55.9202 120.89 57.5025 120.073 58.7438C119.269 59.9676 117.932 60.7368 116.062 61.0559ZM109.577 17.5707C107.793 17.8723 106.313 17.5794 105.144 16.6922C103.991 15.783 103.269 14.3756 102.986 12.47C102.699 10.5512 102.974 8.97331 103.811 7.74511C104.664 6.49943 105.98 5.72142 107.769 5.41984C109.569 5.11388 111.046 5.39798 112.198 6.27215C113.359 7.12446 114.093 8.54934 114.389 10.5424C114.672 12.4437 114.405 14.0172 113.589 15.2629C112.785 16.4824 111.448 17.256 109.577 17.5707Z" stroke="#FFAC2B" stroke-width="4.66023"/>
<path d="M91.823 41.6151C90.3669 41.8598 89.1652 41.6326 88.2136 40.9332C87.2621 40.2252 86.6714 39.0975 86.4418 37.559C86.2121 36.0117 86.4459 34.7442 87.1472 33.7651C87.8445 32.7773 88.9232 32.1566 90.3793 31.9119L133.249 24.6563C134.766 24.4028 135.989 24.6301 136.907 25.3382C137.826 26.0375 138.4 27.1652 138.63 28.7124C138.86 30.251 138.638 31.5185 137.974 32.5063C137.305 33.4854 136.21 34.106 134.693 34.3595L91.823 41.6151ZM116.071 61.039C114.275 61.3449 112.794 61.0477 111.625 60.1473C110.465 59.2513 109.743 57.8483 109.46 55.9339C109.173 54.0238 109.452 52.4503 110.296 51.2134C111.15 49.9677 112.47 49.1941 114.267 48.8881C116.059 48.5865 117.532 48.8663 118.68 49.7273C119.828 50.5927 120.55 52.0176 120.846 54.0107C121.129 55.9251 120.87 57.4986 120.075 58.7312C119.275 59.955 117.942 60.7243 116.071 61.039ZM109.591 17.5581C107.794 17.8641 106.314 17.5669 105.145 16.6665C103.984 15.7705 103.262 14.3674 102.979 12.453C102.692 10.543 102.971 8.96948 103.816 7.73254C104.669 6.49997 105.99 5.73071 107.786 5.42475C109.579 5.12316 111.051 5.4029 112.2 6.26395C113.348 7.11625 114.07 8.53677 114.365 10.5299C114.648 12.4443 114.39 14.0178 113.594 15.2503C112.794 16.4742 111.461 17.2434 109.591 17.5581Z" fill="#FFAC2B"/>
<mask id="mask1_37_120" style="mask-type:luminance" maskUnits="userSpaceOnUse" x="3" y="0" width="54" height="65">
<path d="M3.78174 0H56.7001V64.8978H3.78174V0Z" fill="white"/>
</mask>
<g mask="url(#mask1_37_120)">
<path d="M-2.99408 28.3404C-4.15073 28.7382 -5.15971 28.7163 -6.02104 28.2705C-6.88647 27.8247 -7.5058 26.9855 -7.87905 25.7529C-8.25229 24.5203 -8.21127 23.4582 -7.756 22.5578C-7.30482 21.6574 -6.50092 21.0062 -5.34427 20.6085L28.8423 8.8204C30.0523 8.4008 31.0735 8.42266 31.9103 8.87722C32.747 9.33179 33.3499 10.1754 33.7231 11.4079C34.1005 12.6361 34.0718 13.6982 33.6452 14.5899C33.2186 15.4815 32.3983 16.1328 31.1884 16.5524L-2.99408 28.3404ZM2.32153 45.8455C1.16488 46.2477 0.155901 46.2214 -0.705427 45.7756C-1.57086 45.3298 -2.18609 44.4906 -2.56343 43.258C-2.93668 42.0298 -2.89156 40.9765 -2.42808 40.1067C-1.9646 39.2325 -1.15659 38.5987 4.845e-05 38.201L34.1825 26.4129C35.3925 25.9933 36.4138 25.9977 37.2382 26.4261C38.0667 26.85 38.6655 27.6805 39.0429 28.9131C39.4325 30.2024 39.412 31.2777 38.9731 32.1387C38.5384 32.9998 37.7139 33.6423 36.5081 34.0575L2.32153 45.8455Z" stroke="#2B8CFF" stroke-width="3.85675"/>
</g>
<mask id="mask2_37_120" style="mask-type:luminance" maskUnits="userSpaceOnUse" x="3" y="6" width="38" height="43">
<path d="M3.78174 6.71356H40.9501V48.1139H3.78174V6.71356Z" fill="white"/>
</mask>
<g mask="url(#mask2_37_120)">
<path d="M-3.00299 28.3524C-4.15964 28.7501 -5.16862 28.7283 -6.02174 28.2825C-6.88307 27.8279 -7.50241 26.9843 -7.87565 25.7474C-8.24479 24.5236 -8.20788 23.4658 -7.76081 22.5654C-7.30964 21.6563 -6.50573 21.0051 -5.34909 20.6073L28.8415 8.80612C30.0433 8.39963 31.0646 8.42149 31.9095 8.87605C32.7503 9.33061 33.3574 10.1698 33.7306 11.3936C34.0997 12.6306 34.0669 13.6971 33.6322 14.5931C33.2056 15.4935 32.3894 16.1447 31.1876 16.5512L-3.00299 28.3524ZM2.31263 45.8531C1.15189 46.2509 0.138802 46.229 -0.722526 45.7832C-1.57565 45.3417 -2.18678 44.5025 -2.56003 43.2656C-2.92917 42.0418 -2.88815 40.9928 -2.42878 40.1186C-1.9694 39.2357 -1.16139 38.5932 -0.000650406 38.1955L34.19 26.3943C35.3917 25.9878 36.4089 26.0009 37.2415 26.4292C38.07 26.8619 38.673 27.688 39.0462 28.9119C39.44 30.2056 39.4113 31.2852 38.9642 32.1463C38.5253 33.0117 37.705 33.6454 36.5033 34.0519L2.31263 45.8531Z" fill="#2B8CFF"/>
</g>
<mask id="mask3_37_120" style="mask-type:luminance" maskUnits="userSpaceOnUse" x="1278" y="99" width="104" height="68">
<path d="M1278.9 99.5846H1381.8V166.165H1278.9V99.5846Z" fill="white"/>
</mask>
<g mask="url(#mask3_37_120)">
<path d="M1314.96 145.028C1312.87 145.028 1311.13 144.294 1309.73 142.834C1308.36 141.348 1307.67 139.538 1307.67 137.41C1307.67 135.181 1308.36 133.358 1309.73 131.946C1311.13 130.508 1312.87 129.791 1314.96 129.791H1345.37C1347.37 129.791 1349.05 130.508 1350.42 131.946C1351.82 133.358 1352.52 135.181 1352.52 137.41C1352.52 139.538 1351.82 141.348 1350.42 142.834C1349.05 144.294 1347.37 145.028 1345.37 145.028H1314.96Z" stroke="#FF2A2A" stroke-width="6.34823"/>
</g>
<path d="M1314.94 145.027C1312.85 145.027 1311.11 144.293 1309.73 142.824C1308.35 141.356 1307.66 139.555 1307.66 137.422C1307.66 135.184 1308.35 133.357 1309.73 131.932C1311.11 130.512 1312.85 129.799 1314.94 129.799H1345.38C1347.38 129.799 1349.07 130.512 1350.45 131.932C1351.82 133.357 1352.51 135.184 1352.51 137.422C1352.51 139.555 1351.82 141.356 1350.45 142.824C1349.07 144.293 1347.38 145.027 1345.38 145.027H1314.94Z" fill="#FF2A2A"/>
<path d="M1387.52 102.889C1386.26 103.658 1385.08 103.894 1383.97 103.601C1382.85 103.291 1381.93 102.469 1381.21 101.132C1380.48 99.7901 1380.28 98.5356 1380.61 97.3643C1380.93 96.1973 1381.71 95.2269 1382.97 94.4533L1420.15 71.6857C1421.46 70.8771 1422.66 70.6323 1423.74 70.9427C1424.82 71.253 1425.72 72.0791 1426.45 73.4209C1427.17 74.7584 1427.39 76.0128 1427.11 77.1798C1426.81 78.3337 1426.01 79.3128 1424.69 80.117L1387.52 102.889ZM1416.29 111.74C1414.74 112.688 1413.28 112.972 1411.91 112.588C1410.54 112.181 1409.41 111.145 1408.51 109.48C1407.62 107.828 1407.36 106.281 1407.73 104.834C1408.1 103.361 1409.06 102.155 1410.61 101.206C1412.18 100.245 1413.63 99.9561 1414.98 100.332C1416.34 100.682 1417.48 101.713 1418.4 103.427C1419.3 105.092 1419.58 106.652 1419.23 108.103C1418.89 109.533 1417.91 110.743 1416.29 111.74ZM1395.96 74.0372C1394.41 74.99 1392.95 75.2698 1391.58 74.8895C1390.21 74.483 1389.08 73.4559 1388.19 71.8037C1387.29 70.1384 1387.03 68.5824 1387.39 67.1357C1387.77 65.6627 1388.73 64.452 1390.28 63.5035C1391.84 62.5463 1393.3 62.2579 1394.65 62.6294C1396 62.9834 1397.14 64.0193 1398.08 65.7501C1398.97 67.4023 1399.24 68.954 1398.9 70.4051C1398.56 71.8343 1397.58 73.045 1395.96 74.0372Z" stroke="#FFAC2B" stroke-width="4.60246"/>
<path d="M1387.52 102.868C1386.27 103.65 1385.08 103.895 1383.96 103.602C1382.85 103.301 1381.93 102.479 1381.21 101.137C1380.48 99.8086 1380.29 98.5629 1380.61 97.3959C1380.93 96.2201 1381.72 95.2411 1382.98 94.4587L1420.14 71.6955C1421.46 70.8913 1422.66 70.6465 1423.75 70.9612C1424.83 71.2759 1425.73 72.0976 1426.45 73.4263C1427.18 74.7682 1427.39 76.0138 1427.09 77.1677C1426.81 78.3216 1426 79.3007 1424.68 80.1049L1387.52 102.868ZM1416.3 111.715C1414.74 112.672 1413.28 112.956 1411.92 112.571C1410.55 112.178 1409.42 111.151 1408.52 109.494C1407.62 107.829 1407.36 106.273 1407.73 104.826C1408.1 103.371 1409.07 102.164 1410.62 101.207C1412.17 100.254 1413.62 99.9572 1414.97 100.316C1416.32 100.665 1417.47 101.71 1418.4 103.445C1419.29 105.102 1419.57 106.645 1419.22 108.078C1418.88 109.512 1417.91 110.727 1416.3 111.715ZM1395.97 74.0208C1394.42 74.978 1392.96 75.2621 1391.59 74.8774C1390.21 74.4841 1389.08 73.4526 1388.19 71.7829C1387.3 70.1307 1387.04 68.5791 1387.41 67.1324C1387.78 65.6769 1388.74 64.4705 1390.29 63.5133C1391.84 62.5605 1393.3 62.2633 1394.64 62.6217C1396 62.9845 1397.14 64.0203 1398.07 65.7337C1398.96 67.4033 1399.23 68.9506 1398.89 70.3842C1398.55 71.8179 1397.58 73.033 1395.97 74.0208Z" fill="#FFAC2B"/>
<mask id="mask4_37_120" style="mask-type:luminance" maskUnits="userSpaceOnUse" x="1425" y="0" width="84" height="80">
<path d="M1425.9 0H1508.22V79.4439H1425.9V0Z" fill="white"/>
</mask>
<g mask="url(#mask4_37_120)">
<path d="M1458.13 57.6074C1456.81 56.9168 1455.97 55.9814 1455.61 54.8057C1455.26 53.6387 1455.42 52.3449 1456.07 50.9288L1463.32 35.2769L1448.89 27.6935C1447.64 27.0335 1446.82 26.1506 1446.44 25.0448C1446.08 23.9215 1446.2 22.6889 1446.82 21.3514C1447.44 20.014 1448.27 19.1704 1449.33 18.8164C1450.38 18.458 1451.53 18.6109 1452.79 19.2709L1467.22 26.8543L1474.25 11.6701C1474.89 10.2714 1475.75 9.37543 1476.82 8.9908C1477.9 8.61054 1479.13 8.78537 1480.5 9.50656C1481.82 10.1971 1482.64 11.1019 1482.97 12.2252C1483.31 13.3485 1483.15 14.6073 1482.5 16.006L1475.47 31.1945L1489.92 38.791C1491.23 39.4816 1492.06 40.3689 1492.41 41.4616C1492.76 42.5543 1492.62 43.7694 1492 45.1068C1491.38 46.4443 1490.56 47.3054 1489.53 47.69C1488.5 48.0615 1487.33 47.8998 1486.02 47.2092L1471.57 39.6171L1464.32 55.269C1463.67 56.6851 1462.81 57.6074 1461.76 58.0401C1460.71 58.4728 1459.5 58.3286 1458.13 57.6074Z" stroke="#88FF2B" stroke-width="4.44376"/>
</g>
<path d="M1458.11 57.6039C1456.8 56.9046 1455.96 55.9692 1455.61 54.8066C1455.27 53.6396 1455.43 52.3589 1456.07 50.9603L1463.32 35.2778L1448.89 27.69C1447.64 27.0257 1446.82 26.1428 1446.44 25.0326C1446.07 23.9268 1446.2 22.7029 1446.82 21.3611C1447.43 20.0324 1448.26 19.1888 1449.31 18.826C1450.37 18.4676 1451.53 18.6162 1452.78 19.2806L1467.21 26.8683L1474.25 11.6754C1474.9 10.2767 1475.75 9.38508 1476.83 9.00045C1477.9 8.60707 1479.12 8.76879 1480.5 9.48998C1481.81 10.1893 1482.64 11.1072 1482.96 12.2348C1483.3 13.3538 1483.15 14.6126 1482.5 16.0112L1475.47 31.2042L1489.9 38.7919C1491.22 39.4825 1492.04 40.3741 1492.4 41.4668C1492.75 42.5639 1492.61 43.7746 1492 45.1034C1491.38 46.4452 1490.55 47.2975 1489.53 47.6734C1488.5 48.0449 1487.33 47.8876 1486.01 47.2014L1471.58 39.6136L1464.33 55.2961C1463.68 56.6948 1462.82 57.6083 1461.77 58.041C1460.7 58.4693 1459.49 58.3251 1458.11 57.6039Z" fill="#88FF2B"/>
<mask id="mask5_37_120" style="mask-type:luminance" maskUnits="userSpaceOnUse" x="1452" y="61" width="57" height="106">
<path d="M1452.15 61.541H1508.22V166.165H1452.15V61.541Z" fill="white"/>
</mask>
<g mask="url(#mask5_37_120)">
<path d="M1483.84 156.444C1481.97 156.444 1480.42 155.885 1479.2 154.762C1477.99 153.643 1477.36 152.183 1477.32 150.378C1477.28 148.577 1477.97 146.689 1479.39 144.709L1499.93 117.71V125.687L1480.66 100.437C1479.13 98.4569 1478.41 96.5687 1478.49 94.7635C1478.6 92.9628 1479.25 91.5029 1480.47 90.3796C1481.69 89.2388 1483.22 88.6663 1485.08 88.6663C1487.04 88.6663 1488.67 89.029 1489.97 89.7546C1491.29 90.4801 1492.5 91.5991 1493.59 93.1157L1508.78 113.916H1503.21L1518.55 93.1157C1519.73 91.5991 1520.95 90.4801 1522.2 89.7546C1523.48 89.029 1525.05 88.6663 1526.91 88.6663C1528.85 88.6663 1530.4 89.2607 1531.58 90.4452C1532.77 91.6122 1533.39 93.0939 1533.43 94.8947C1533.48 96.6998 1532.73 98.588 1531.21 100.568L1512.09 125.521V117.973L1532.6 144.709C1534.12 146.597 1534.85 148.446 1534.76 150.247C1534.68 152.047 1534.02 153.533 1532.78 154.696C1531.57 155.863 1529.99 156.444 1528.05 156.444C1526.2 156.444 1524.63 156.095 1523.35 155.391C1522.09 154.666 1520.88 153.533 1519.7 151.995L1503.21 129.874H1508.53L1492.2 151.995C1491.1 153.446 1489.92 154.556 1488.64 155.326C1487.38 156.073 1485.78 156.444 1483.84 156.444Z" stroke="#BC4ED8" stroke-width="5.63206"/>
</g>
<mask id="mask6_37_120" style="mask-type:luminance" maskUnits="userSpaceOnUse" x="1476" y="88" width="33" height="69">
<path d="M1476.3 88.3953H1508.22V156.65H1476.3V88.3953Z" fill="white"/>
</mask>
<g mask="url(#mask6_37_120)">
<path d="M1483.83 156.468C1481.97 156.468 1480.43 155.908 1479.21 154.789C1477.98 153.661 1477.35 152.197 1477.31 150.401C1477.26 148.596 1477.95 146.703 1479.39 144.719L1499.91 117.707V125.68L1480.67 100.434C1479.13 98.4538 1478.41 96.5656 1478.5 94.7692C1478.59 92.964 1479.25 91.4998 1480.47 90.3809C1481.69 89.2532 1483.24 88.685 1485.1 88.685C1487.03 88.685 1488.66 89.0478 1489.97 89.769C1491.28 90.4814 1492.48 91.6047 1493.58 93.1432L1508.79 113.931H1503.21L1518.55 93.1432C1519.73 91.6047 1520.95 90.4814 1522.21 89.769C1523.48 89.0478 1525.04 88.685 1526.9 88.685C1528.85 88.685 1530.41 89.2707 1531.59 90.4333C1532.77 91.6003 1533.39 93.0864 1533.43 94.8916C1533.47 96.688 1532.73 98.5761 1531.22 100.556L1512.09 125.54V117.987L1532.61 144.719C1534.13 146.607 1534.85 148.456 1534.76 150.261C1534.68 152.057 1534.03 153.543 1532.81 154.719C1531.58 155.882 1529.99 156.468 1528.05 156.468C1526.19 156.468 1524.62 156.105 1523.36 155.384C1522.09 154.662 1520.86 153.539 1519.68 152.009L1503.21 129.858H1508.54L1492.19 152.009C1491.09 153.443 1489.91 154.544 1488.64 155.314C1487.37 156.083 1485.77 156.468 1483.83 156.468Z" fill="#BC4ED8"/>
</g>
</g>
<defs>
<clipPath id="clip0_37_120">
<rect width="1512" height="167" fill="white"/>
</clipPath>
</defs>
</svg>
